<svg width="81" height="23" fill="none" xmlns="http://www.w3.org/2000/svg" viewBox="0 0 81 23"><path d="M5.753 9.72c2.084 0 4.142.02 6.2-.013.777-.014 1.16-.416 1.313-1.046.315-1.287-.274-2.58-1.48-3.15-2.943-1.388-6.301.938-6.033 4.209Zm0 4.001c.12 2.246 1.488 3.727 3.747 4.049 2.11.301 4.162-.007 6.186-.637.255-.08.516-.161.777-.208.55-.094 1.006.16 1.046.697a15.94 15.94 0 0 1-.007 2.594c-.053.59-.543.905-1.086 1.072-2.024.637-4.095.939-6.22.845-1.635-.074-3.243-.268-4.778-.885-3.03-1.206-4.732-3.472-5.181-6.662-.315-2.232-.349-4.49.1-6.716.718-3.572 2.91-5.79 6.448-6.609 2.674-.616 5.349-.596 7.929.443 4.102 1.649 5.067 5.697 3.874 9.021-.684 1.904-2.252 2.762-4.156 2.876-2.272.134-4.557.087-6.836.114-.603.013-1.2.006-1.843.006ZM46.034 9.72c2.085 0 4.142.02 6.2-.013.777-.014 1.16-.416 1.314-1.046.315-1.287-.275-2.58-1.482-3.15-2.942-1.388-6.3.931-6.032 4.209Zm.007 4.001c.12 2.246 1.488 3.727 3.747 4.049 2.11.301 4.162-.007 6.186-.637.255-.08.516-.161.778-.208.55-.094 1.005.16 1.045.697.067.865.067 1.736-.007 2.594-.053.59-.543.905-1.085 1.072-2.025.637-4.096.939-6.22.845-1.636-.074-3.244-.268-4.78-.885-3.029-1.206-4.731-3.472-5.18-6.662-.315-2.232-.349-4.49.1-6.716.718-3.572 2.91-5.79 6.448-6.609 2.674-.616 5.349-.596 7.93.443 4.101 1.649 5.066 5.697 3.873 9.021-.683 1.904-2.252 2.762-4.155 2.876-2.272.134-4.558.087-6.837.114-.61.013-1.206.006-1.843.006ZM37.314.96c-1.286 0-2.138.482-3.009 1.682-2.111 2.909-6.555 9.062-6.555 9.062v8.666l1.012-1.374 11.4-15.77s.43-.59.55-.818c.396-.738.007-1.455-.489-1.455-.188.007-2.232.007-2.909.007ZM80.418 9.593a18.019 18.019 0 0 0-.288-3.063c-.456-2.5-1.937-4.263-4.457-5.02a14.5 14.5 0 0 0-2.835-.537c-2.065-.2-4.116.12-6.06.603-.14-.321-.596-.61-.91-.61h-2.715c-.979 0-1.582.724-1.582 1.482v17.989c0 .999.777 1.562 1.501 1.562h2.721c.805 0 1.495-.69 1.495-1.562 0 0 .007-12.701.013-13.928a.7.7 0 0 1 .315-.61c.188-.14.557-.247.798-.328.737-.248 2.473-.657 3.867-.107a3.364 3.364 0 0 1 1.91 1.93c.282.744.49 1.649.496 2.634.007.724.014 10.402.014 10.402 0 .885.744 1.569 1.42 1.569h2.702c.757 0 1.602-.57 1.602-1.569 0-.006 0-10.469-.007-10.837ZM27.006 2.475c0-.758-.637-1.508-1.515-1.508h-2.694c-.797 0-1.508.623-1.508 1.541v18.023c0 .764.657 1.468 1.495 1.468h2.72c.819 0 1.502-.65 1.502-1.555V2.474Z" fill="white"></path></svg>
