<svg width="162" height="39" viewBox="0 0 162 39" fill="none" xmlns="http://www.w3.org/2000/svg">
<path fill-rule="evenodd" clip-rule="evenodd" d="M47.9849 28.9573V26.3624C47.9849 26.2496 47.9849 26.1367 47.9849 25.9863V12.5983C47.9849 10.4171 47.1327 10.2291 45.6134 10.2291V9.66495H52.6908C56.2479 9.66495 59.1011 10.3043 59.1011 14.6667C59.1011 19.6308 54.8028 19.6308 51.8385 19.6308H50.3563V20.4957V28.9573H47.9849ZM50.3934 13.1624V18.5026H51.8756C54.6917 18.5026 56.5814 17.9385 56.5814 14.6667C56.5814 11.8085 55.0993 10.7932 52.6908 10.7932C50.5416 10.7932 50.3934 10.906 50.3934 13.1624Z" fill="white"/>
<path d="M77.7393 28.9573V10.7932H76.0718C73.2928 10.7932 72.8852 11.9966 72.6258 13.6137H71.9588L72.1441 9.66495H85.7429L85.9282 13.6137H85.2242C85.0759 11.7709 84.2608 10.7932 81.5929 10.7932H80.1107V28.9573H77.7393Z" fill="white"/>
<path fill-rule="evenodd" clip-rule="evenodd" d="M91.7086 19.1419V23.6547V28.9197H89.3001V26.4752C89.3001 26.3248 89.3001 26.1368 89.3001 25.9487V12.5983C89.3001 10.4171 88.4479 10.2291 86.9286 10.2291V9.66495H94.1171C97.0444 9.66495 100.194 10.4923 100.194 14.1026C100.194 17.8256 97.3779 18.8034 95.4511 18.9538L101.157 28.9573H98.2672L92.8573 19.1795H91.7086V19.1419ZM91.7086 12.7111V18.0513C94.8582 18.0513 97.6372 17.7504 97.6372 14.1026C97.6372 11.6581 95.6363 10.7932 93.4501 10.7932C91.8568 10.7932 91.7086 11.1316 91.7086 12.7111Z" fill="white"/>
<path fill-rule="evenodd" clip-rule="evenodd" d="M107.012 12.2974C107.012 12.4103 107.012 12.4855 107.012 12.5983V25.9863C107.012 26.0991 107.012 26.212 107.012 26.2872V12.2974ZM104.566 26.6256C104.566 26.4376 104.603 26.2496 104.603 26.0239V12.5983C104.603 10.4171 103.751 10.2291 102.232 10.2291V9.66495H107.012V12.2974V26.2872V28.9197H104.566V26.6256Z" fill="white"/>
<path d="M114.386 28.9573H112.755V12.6359C112.755 10.4547 111.866 10.2667 110.384 10.2667V9.70256H116.016L121.315 26.1744L126.725 9.66495H130.134V28.9573H127.688V25.2342V11.3197L121.982 28.9573H120.018L114.386 11.3573V28.9573Z" fill="white"/>
<path d="M65.215 12.9744L62.1766 21.812H68.2164L65.215 12.9744ZM58.1377 28.9573L64.1404 12.0342C64.4739 10.4547 63.6958 10.3043 62.3989 10.3043V9.77777H64.9927H66.5119L73.3298 28.9573H70.7731C70.5137 28.2427 69.995 26.8513 69.9209 26.588L68.661 22.9402H61.8431L59.8422 28.9573H58.1377Z" fill="white"/>
<path d="M139.434 12.9744L136.396 21.812H142.435L139.434 12.9744ZM132.357 28.9573L138.36 12.0342C138.693 10.4547 137.915 10.3043 136.618 10.3043V9.77777H139.212H140.731L147.549 28.9573H144.992C144.733 28.2427 144.214 26.8513 144.14 26.588L142.88 22.9402H135.988L133.987 28.9573H132.357Z" fill="white"/>
<path fill-rule="evenodd" clip-rule="evenodd" d="M152.588 19.1419V23.6547V28.9197H150.143V26.4752C150.143 26.3248 150.143 26.1368 150.143 25.9487V12.5983C150.143 10.4171 149.29 10.2291 147.771 10.2291V9.66495H154.96C157.887 9.66495 161.037 10.4923 161.037 14.1026C161.037 17.8256 158.22 18.8034 156.294 18.9538L162 28.9573H159.11L153.7 19.1795H152.588V19.1419ZM152.588 12.7111V18.0513C155.738 18.0513 158.517 17.7504 158.517 14.1026C158.517 11.6581 156.516 10.7932 154.33 10.7932C152.699 10.7932 152.588 11.1316 152.588 12.7111Z" fill="white"/>
<path d="M21.4543 1.01538C22.4177 6.28034 21.8618 12.7487 20.5279 19.6308C20.1944 21.3231 19.7498 23.0154 19.194 24.6701C26.9753 22.7145 32.6446 18.9162 33.7191 13.5009C34.6825 8.64957 29.0133 3.68547 21.4543 1.01538ZM3.74245 38.9607C6.59561 36.2906 9.22644 33.0188 11.4497 29.3333C7.78133 30.1231 3.92772 30.7624 0 31.2889V26.0615C2.26029 26.2872 5.03934 26.3248 8.07777 26.212C9.89341 26.1368 11.672 25.9863 13.4135 25.7607C15.3033 21.9624 16.7855 17.9009 17.6006 13.6889C18.564 8.72479 18.564 3.91111 17.7859 -0.0376075H18.0453H21.269H27.6423C31.607 1.0906 35.4236 2.85812 37.5727 4.77607V17.9385C33.8673 22 26.8271 25.2718 18.1194 27.6786C16.5261 31.6273 14.414 35.4256 12.0055 38.9231L3.74245 38.9607Z" fill="white"/>
<path d="M37.5727 0H27.6423C31.607 1.12821 35.4236 2.89573 37.5727 4.81368V0Z" fill="white"/>
<path d="M21.4543 1.01539C22.4177 6.28034 21.8619 12.7487 20.5279 19.6308C20.1944 21.3231 19.7498 23.0154 19.194 24.6701C26.9753 22.7145 32.6446 18.9162 33.7191 13.5009C34.6825 8.64957 29.0133 3.68547 21.4543 1.01539Z" fill="white" opacity="0.7"/>
<path d="M0 26.0991C2.26029 26.3248 5.03934 26.3624 8.07777 26.2496C9.89341 26.1744 11.672 26.0239 13.4135 25.7983C15.3033 22 16.7855 17.9385 17.6006 13.7265C18.564 8.76239 18.564 3.94872 17.7859 0H18.0453H0V26.0991Z" fill="white" opacity="0.7"/>
<path d="M0 38.9607H3.74245C6.59561 36.2906 9.22644 33.0188 11.4497 29.3333C7.78134 30.1231 3.92772 30.7624 0 31.2889V38.9607Z" fill="white" opacity="0.85"/>
<path d="M37.5727 38.9607V17.9385C33.8673 22 26.8271 25.2718 18.1194 27.6786C16.5261 31.6273 14.414 35.4256 12.0055 38.9231L37.5727 38.9607Z" fill="white" opacity="0.85"/>
</svg>
